<svg width="226" height="236" viewBox="0 0 226 236" fill="none" xmlns="http://www.w3.org/2000/svg">
<g clip-path="url(#clip0_5886_10044)">
<path fill-rule="evenodd" clip-rule="evenodd" d="M112.948 215.329C163.9 215.329 205.204 174.025 205.204 123.073C205.204 72.121 163.9 30.8164 112.948 30.8164C61.996 30.8164 20.6914 72.121 20.6914 123.073C20.6914 174.025 61.996 215.329 112.948 215.329Z" stroke="#3AD29F" stroke-width="0.621256" stroke-dasharray="3.73 3.73"/>
<path fill-rule="evenodd" clip-rule="evenodd" d="M112.948 234.898C174.708 234.898 224.774 184.832 224.774 123.072C224.774 61.3123 174.708 11.2461 112.948 11.2461C51.1883 11.2461 1.12207 61.3123 1.12207 123.072C1.12207 184.832 51.1883 234.898 112.948 234.898Z" stroke="#3AD29F" stroke-width="0.621256" stroke-dasharray="3.73 3.73"/>
<path d="M187.791 158.698C187.794 145.679 177.889 134.796 164.926 133.577C151.964 132.358 140.204 141.204 137.78 153.995L60.25 151.893L61.1011 165.212C61.1011 165.212 50.0459 190.721 108.149 197.518V223.3H175.319V180.433C183.037 175.913 187.783 167.643 187.791 158.698Z" fill="url(#paint0_linear_5886_10044)"/>
<path d="M63.7638 165.777C63.7638 165.777 53.1776 190.205 108.82 196.722V221.423H173.148V156.008L62.9375 153.02L63.7638 165.777Z" fill="#FFCBB4"/>
<path d="M95.9123 63.8341C92.4206 69.3441 85.1345 70.9997 79.6044 67.5399L45.0657 44.7802C39.5557 41.2884 37.9 34.0023 41.3599 28.4722C44.8512 22.9698 52.1279 21.315 57.6554 24.7664L92.1941 47.5261C97.7085 51.0138 99.3699 58.3008 95.9123 63.8341Z" fill="url(#paint1_linear_5886_10044)"/>
<path d="M93.9995 62.5927C90.7538 67.7143 83.9813 69.2534 78.8409 66.0376L46.7251 44.8652C41.6035 41.6195 40.0644 34.8469 43.2802 29.7065C46.5259 24.5849 53.2984 23.0458 58.4389 26.2617L90.5484 47.4216C95.6798 50.6658 97.2227 57.4481 93.9995 62.5927Z" fill="#FFCBB4"/>
<path d="M160.936 183.69C174.278 183.69 185.093 172.874 185.093 159.533C185.093 146.191 174.278 135.375 160.936 135.375C147.594 135.375 136.778 146.191 136.778 159.533C136.778 172.874 147.594 183.69 160.936 183.69Z" fill="#FFCBB4"/>
<path d="M156.588 0.199219H64.0454C61.9439 0.199219 60.2402 1.90286 60.2402 4.00441V177.167C60.2402 179.269 61.9439 180.972 64.0454 180.972H156.588C158.689 180.972 160.393 179.269 160.393 177.167V4.00441C160.393 1.90286 158.689 0.199219 156.588 0.199219Z" fill="url(#paint2_linear_5886_10044)"/>
<path d="M154.8 2.64062H65.8297C63.4897 2.64062 61.5928 4.53758 61.5928 6.87759V174.294C61.5928 176.634 63.4897 178.531 65.8297 178.531H154.8C157.14 178.531 159.037 176.634 159.037 174.294V6.87759C159.037 4.53758 157.14 2.64062 154.8 2.64062Z" fill="white"/>
<path d="M134.793 7.05078C134.211 10.9051 130.904 13.7582 127.006 13.7697H93.3522C89.4554 13.7567 86.1502 10.9039 85.5679 7.05078H67.7378C66.7561 7.05078 65.8143 7.43937 65.1198 8.13326C64.4254 8.82716 64.0352 9.76863 64.0352 10.7504V170.413C64.0352 171.395 64.4237 172.337 65.1176 173.031C65.8115 173.726 66.753 174.116 67.7347 174.116H152.89C153.872 174.116 154.814 173.727 155.508 173.033C156.203 172.339 156.593 171.398 156.593 170.416V10.7535C156.593 9.77174 156.204 8.82994 155.51 8.13546C154.817 7.44098 153.875 7.05078 152.893 7.05078H134.793Z" fill="#E9ECFF"/>
<path d="M120.688 9.15234H100.215C99.8719 9.15234 99.5938 9.43049 99.5938 9.7736V9.88853C99.5938 10.2316 99.8719 10.5098 100.215 10.5098H120.688C121.032 10.5098 121.31 10.2316 121.31 9.88853V9.7736C121.31 9.43049 121.032 9.15234 120.688 9.15234Z" fill="#DBDBDB"/>
<path d="M125.923 10.7115C126.482 10.7115 126.935 10.2584 126.935 9.6995C126.935 9.14059 126.482 8.6875 125.923 8.6875C125.364 8.6875 124.911 9.14059 124.911 9.6995C124.911 10.2584 125.364 10.7115 125.923 10.7115Z" fill="#DBDBDB"/>
<path d="M176.551 163.797C169.54 165.418 164.728 160.846 163.107 153.838L146.998 94.0205C145.395 86.9855 149.773 79.9764 156.798 78.3307C163.833 76.7278 170.842 81.1059 172.488 88.131L185.634 149.492C187.255 156.503 183.559 162.175 176.551 163.797Z" fill="url(#paint3_linear_5886_10044)"/>
<path d="M170.682 89.5934C169.315 83.6779 163.412 79.9905 157.496 81.3572C151.581 82.724 147.893 88.6275 149.26 94.543L164.073 158.654C165.44 164.57 171.343 168.257 177.259 166.89C183.174 165.524 186.862 159.62 185.495 153.705L170.682 89.5934Z" fill="#FFCBB4"/>
<path d="M184.992 213.336H93.0459V234.769H184.992V213.336Z" fill="url(#paint4_linear_5886_10044)"/>
<path d="M182.506 215.82H95.5303V232.594H182.506V215.82Z" fill="#4D8AF0"/>
<path d="M82.5077 128.003C79.0583 133.447 71.8593 135.083 66.3954 131.665L43.2319 116.677C37.7874 113.228 36.1511 106.029 39.5696 100.565C43.0189 95.1204 50.2179 93.4841 55.6819 96.9026L78.8454 111.89C84.2898 115.34 85.9262 122.539 82.5077 128.003Z" fill="url(#paint5_linear_5886_10044)"/>
<path d="M76.692 159.729C73.2119 165.223 65.9474 166.875 60.4338 163.425L46.0859 152.963C40.5914 149.483 38.9398 142.219 42.3894 136.705C45.8695 131.211 53.134 129.559 58.6477 133.009L72.9956 143.474C78.4881 146.954 80.1395 154.216 76.692 159.729Z" fill="url(#paint6_linear_5886_10044)"/>
<g opacity="0.5">
<path d="M110.314 118.532C125.743 118.532 138.252 106.024 138.252 90.5941C138.252 75.1645 125.743 62.6562 110.314 62.6562C94.8842 62.6562 82.376 75.1645 82.376 90.5941C82.376 106.024 94.8842 118.532 110.314 118.532Z" fill="url(#paint7_linear_5886_10044)"/>
</g>
<path d="M110.314 116.882C124.836 116.882 136.609 105.11 136.609 90.5876C136.609 76.0655 124.836 64.293 110.314 64.293C95.792 64.293 84.0195 76.0655 84.0195 90.5876C84.0195 105.11 95.792 116.882 110.314 116.882Z" fill="#69F0AE"/>
<path d="M98.9026 87.0768L108.762 96.116L122.731 75.5742L127.664 79.6838L108.762 104.335L94.793 88.7231L98.9026 87.0768Z" fill="white"/>
<path d="M75.5341 158.951C72.2884 164.072 65.5159 165.611 60.3755 162.396L46.9936 152.654C41.872 149.409 40.3329 142.636 43.5488 137.496C46.7945 132.374 53.567 130.835 58.7074 134.051L72.0862 143.811C77.1975 147.055 78.7368 153.813 75.5341 158.951Z" fill="#FFCBB4"/>
<path d="M81.233 127.187C77.9873 132.308 71.2148 133.848 66.0744 130.632L44.2807 116.529C39.1591 113.284 37.62 106.511 40.8359 101.371C44.0816 96.249 50.8541 94.7099 55.9945 97.9257L77.7882 112.028C82.9098 115.274 84.4489 122.046 81.233 127.187Z" fill="#FFCBB4"/>
<path d="M88.4948 96.4291C85.0285 101.897 77.797 103.541 72.308 100.107L42.9537 80.994C37.4853 77.5277 35.8423 70.2962 39.2759 64.8072C42.7422 59.3388 49.9737 57.6958 55.4627 61.1294L84.817 80.2423C90.2853 83.7087 91.9284 90.9401 88.4948 96.4291Z" fill="url(#paint8_linear_5886_10044)"/>
<path d="M86.9369 95.4351C83.6913 100.557 76.9187 102.096 71.7783 98.8799L44.2847 80.9784C39.163 77.7328 37.6239 70.9602 40.8398 65.8198C44.0855 60.6982 50.858 59.1591 55.9984 62.3749L83.489 80.2764C88.6117 83.5211 90.1522 90.2938 86.9369 95.4351Z" fill="#FFCBB4"/>
</g>
<defs>
<linearGradient id="paint0_linear_5886_10044" x1="124.025" y1="223.315" x2="124.025" y2="133.469" gradientUnits="userSpaceOnUse">
<stop stop-color="#808080" stop-opacity="0.25"/>
<stop offset="0.54" stop-color="#808080" stop-opacity="0.12"/>
<stop offset="1" stop-color="#808080" stop-opacity="0.1"/>
</linearGradient>
<linearGradient id="paint1_linear_5886_10044" x1="68.633" y1="69.3508" x2="68.633" y2="22.9617" gradientUnits="userSpaceOnUse">
<stop stop-color="#808080" stop-opacity="0.25"/>
<stop offset="0.54" stop-color="#808080" stop-opacity="0.12"/>
<stop offset="1" stop-color="#808080" stop-opacity="0.1"/>
</linearGradient>
<linearGradient id="paint2_linear_5886_10044" x1="110.317" y1="180.969" x2="110.317" y2="0.196116" gradientUnits="userSpaceOnUse">
<stop stop-color="#808080" stop-opacity="0.25"/>
<stop offset="0.54" stop-color="#808080" stop-opacity="0.12"/>
<stop offset="1" stop-color="#808080" stop-opacity="0.1"/>
</linearGradient>
<linearGradient id="paint3_linear_5886_10044" x1="166.337" y1="164.12" x2="166.337" y2="77.9952" gradientUnits="userSpaceOnUse">
<stop stop-color="#808080" stop-opacity="0.25"/>
<stop offset="0.54" stop-color="#808080" stop-opacity="0.12"/>
<stop offset="1" stop-color="#808080" stop-opacity="0.1"/>
</linearGradient>
<linearGradient id="paint4_linear_5886_10044" x1="139.025" y1="234.763" x2="139.025" y2="213.33" gradientUnits="userSpaceOnUse">
<stop stop-color="#808080" stop-opacity="0.25"/>
<stop offset="0.54" stop-color="#808080" stop-opacity="0.12"/>
<stop offset="1" stop-color="#808080" stop-opacity="0.1"/>
</linearGradient>
<linearGradient id="paint5_linear_5886_10044" x1="61.034" y1="133.451" x2="61.034" y2="95.1196" gradientUnits="userSpaceOnUse">
<stop stop-color="#808080" stop-opacity="0.25"/>
<stop offset="0.54" stop-color="#808080" stop-opacity="0.12"/>
<stop offset="1" stop-color="#808080" stop-opacity="0.1"/>
</linearGradient>
<linearGradient id="paint6_linear_5886_10044" x1="59.5423" y1="165.227" x2="59.5423" y2="131.204" gradientUnits="userSpaceOnUse">
<stop stop-color="#808080" stop-opacity="0.25"/>
<stop offset="0.54" stop-color="#808080" stop-opacity="0.12"/>
<stop offset="1" stop-color="#808080" stop-opacity="0.1"/>
</linearGradient>
<linearGradient id="paint7_linear_5886_10044" x1="110.314" y1="118.532" x2="110.314" y2="62.6531" gradientUnits="userSpaceOnUse">
<stop stop-color="#808080" stop-opacity="0.25"/>
<stop offset="0.54" stop-color="#808080" stop-opacity="0.12"/>
<stop offset="1" stop-color="#808080" stop-opacity="0.1"/>
</linearGradient>
<linearGradient id="paint8_linear_5886_10044" x1="63.8838" y1="101.912" x2="63.8838" y2="59.3464" gradientUnits="userSpaceOnUse">
<stop stop-color="#808080" stop-opacity="0.25"/>
<stop offset="0.54" stop-color="#808080" stop-opacity="0.12"/>
<stop offset="1" stop-color="#808080" stop-opacity="0.1"/>
</linearGradient>
<clipPath id="clip0_5886_10044">
<rect width="225.676" height="235.796" fill="white" transform="translate(0.109375 0.199219)"/>
</clipPath>
</defs>
</svg>
