<svg width="25" height="25" viewBox="0 0 25 25" fill="none" xmlns="http://www.w3.org/2000/svg">
<g clip-path="url(#clip0_5014_8551)">
<path d="M18.75 13.2812H6.25C4.7996 13.2813 3.4086 13.8574 2.38301 14.883C1.35742 15.9086 0.78125 17.2996 0.78125 18.75C0.78125 20.2004 1.35742 21.5914 2.38301 22.617C3.4086 23.6426 4.7996 24.2188 6.25 24.2188H18.75C20.2004 24.2188 21.5914 23.6426 22.617 22.617C23.6426 21.5914 24.2188 20.2004 24.2188 18.75C24.2188 17.2996 23.6426 15.9086 22.617 14.883C21.5914 13.8574 20.2004 13.2813 18.75 13.2812ZM2.34375 18.75C2.34375 17.714 2.7553 16.7204 3.48786 15.9879C4.22043 15.2553 5.214 14.8438 6.25 14.8438H11.7188V22.6562H6.25C5.214 22.6562 4.22043 22.2447 3.48786 21.5121C2.7553 20.7796 2.34375 19.786 2.34375 18.75ZM18.75 22.6562H13.2812V14.8438H18.75C19.786 14.8438 20.7796 15.2553 21.5121 15.9879C22.2447 16.7204 22.6562 17.714 22.6562 18.75C22.6562 19.786 22.2447 20.7796 21.5121 21.5121C20.7796 22.2447 19.786 22.6562 18.75 22.6562Z" fill="#31E3B9"/>
<path d="M6.48353 20.719C5.6737 20.461 4.99401 19.9016 4.58509 19.1565C4.47699 18.9865 4.30737 18.8648 4.11165 18.8168C3.91593 18.7689 3.70926 18.7984 3.53481 18.8993C3.36036 19.0001 3.23161 19.1645 3.17547 19.358C3.11933 19.5515 3.14013 19.7592 3.23353 19.9378C3.82683 21.0123 4.80309 21.824 5.9679 22.2112C6.05059 22.2412 6.13775 22.2571 6.22572 22.2581C6.42475 22.2812 6.62505 22.2269 6.7852 22.1065C6.94536 21.9861 7.05313 21.8087 7.08623 21.6111C7.11933 21.4135 7.07524 21.2107 6.96307 21.0447C6.8509 20.8787 6.67922 20.7621 6.48353 20.719ZM6.10072 12.3284L9.9679 8.42215L13.5148 11.969C13.6642 12.097 13.8565 12.1639 14.0531 12.1563C14.2497 12.1487 14.4362 12.0672 14.5754 11.9281C14.7145 11.7889 14.796 11.6024 14.8036 11.4058C14.8112 11.2092 14.7443 11.0169 14.6163 10.8675L11.0695 7.35184L14.9367 3.48465C15.6734 2.7731 16.6601 2.37937 17.6843 2.38827C18.7085 2.39717 19.6883 2.80799 20.4125 3.53224C21.1368 4.25649 21.5476 5.23622 21.5565 6.26043C21.5654 7.28464 21.1716 8.27136 20.4601 9.00809L18.1945 11.2737C18.1127 11.3438 18.0463 11.4299 17.9994 11.5269C17.9525 11.6238 17.9261 11.7294 17.922 11.837C17.9178 11.9445 17.9359 12.0518 17.9752 12.1521C18.0145 12.2523 18.0741 12.3434 18.1502 12.4195C18.2263 12.4957 18.3174 12.5553 18.4177 12.5945C18.5179 12.6338 18.6252 12.6519 18.7328 12.6478C18.8404 12.6436 18.946 12.6173 19.0429 12.5704C19.1398 12.5235 19.226 12.4571 19.296 12.3753L21.5617 10.1097C22.5873 9.08401 23.1635 7.69294 23.1635 6.24247C23.1635 4.79199 22.5873 3.40092 21.5617 2.37528C20.536 1.34964 19.1449 0.773438 17.6945 0.773438C16.244 0.773438 14.8529 1.34964 13.8273 2.37528L9.41322 6.80497L4.99134 11.219C4.9185 11.2919 4.86072 11.3783 4.8213 11.4735C4.78187 11.5687 4.76158 11.6707 4.76158 11.7737C4.76158 11.9818 4.84423 12.1813 4.99134 12.3284C5.13845 12.4755 5.33798 12.5582 5.54603 12.5582C5.75408 12.5582 5.9536 12.4755 6.10072 12.3284Z" fill="#31E3B9"/>
</g>
<defs>
<clipPath id="clip0_5014_8551">
<rect width="25" height="25" fill="white"/>
</clipPath>
</defs>
</svg>
